<svg width="39" height="39" viewBox="0 0 39 39" fill="none" xmlns="http://www.w3.org/2000/svg">
<path fill-rule="evenodd" clip-rule="evenodd" d="M39.001 19.9425C39.001 30.4676 30.2703 38.9998 19.5005 38.9998C8.73066 38.9998 0 30.4676 0 19.9425C0 9.41749 8.73066 0.885254 19.5005 0.885254C30.2703 0.885254 39.001 9.41749 39.001 19.9425ZM19.168 29.9167C18.6157 29.9167 18.168 29.469 18.168 28.9167V20.9583H10C9.44772 20.9583 9 20.5105 9 19.9583C9 19.406 9.44772 18.9583 10 18.9583H18.168V11.0001C18.168 10.4478 18.6157 10.0001 19.168 10.0001C19.7203 10.0001 20.168 10.4478 20.168 11.0001V18.9583H28.3333C28.8856 18.9583 29.3333 19.406 29.3333 19.9583C29.3333 20.5105 28.8856 20.9583 28.3333 20.9583H20.168V28.9167C20.168 29.469 19.7203 29.9167 19.168 29.9167Z" fill="#F6BF5F"/>
</svg>
