<svg width="109" height="29" viewBox="0 0 109 29" fill="none" xmlns="http://www.w3.org/2000/svg">
<rect x="0.115234" y="1.97623" width="25.2337" height="25.2337" rx="2.73365" fill="white"/>
<path d="M13.2654 3.61637C13.3656 3.56595 13.4741 3.55334 13.5158 3.55334H18.1469C18.2094 3.55334 18.3346 3.61637 18.4598 3.74243C18.5599 3.84327 18.5015 4.12059 18.4598 4.24664L14.2668 11.8729H16.5823C16.9828 11.8729 17.0412 12.2091 17.0204 12.3771L8.94727 26.6843C10.1155 23.0497 12.4644 15.7176 12.5145 15.4655C12.5645 15.2133 12.3684 15.1503 12.2641 15.1503H9.94858C9.90686 15.1503 9.79839 15.1251 9.69826 15.0243C9.59812 14.9234 9.61481 14.7722 9.63567 14.7091L13.0777 3.80545C13.0986 3.76343 13.1653 3.66679 13.2654 3.61637Z" fill="#F6BF5F" stroke="#F6BF5F" stroke-width="0.105141"/>
<path d="M39.1373 22.4131V9.7394H41.0185V11.7197H41.1836C41.4476 11.0431 41.8739 10.5178 42.4625 10.1437C43.0511 9.76415 43.7579 9.57438 44.583 9.57438C45.4191 9.57438 46.115 9.76415 46.6706 10.1437C47.2316 10.5178 47.6689 11.0431 47.9825 11.7197H48.1145C48.439 11.0651 48.9259 10.5453 49.5749 10.1602C50.224 9.76965 51.0024 9.57438 51.91 9.57438C53.0432 9.57438 53.97 9.92917 54.6906 10.6388C55.4112 11.3429 55.7715 12.4403 55.7715 13.931V22.4131H53.8243V13.931C53.8243 12.9958 53.5685 12.3275 53.0569 11.9259C52.5453 11.5244 51.943 11.3236 51.2499 11.3236C50.3588 11.3236 49.6685 11.5931 49.1789 12.1322C48.6893 12.6658 48.4445 13.3424 48.4445 14.162V22.4131H46.4643V13.7329C46.4643 13.0123 46.2305 12.432 45.7629 11.9919C45.2954 11.5464 44.693 11.3236 43.9559 11.3236C43.4499 11.3236 42.9768 11.4584 42.5368 11.7279C42.1022 11.9974 41.7501 12.3715 41.4806 12.8501C41.2166 13.3231 41.0846 13.8704 41.0846 14.492V22.4131H39.1373ZM64.4806 22.6771C63.3364 22.6771 62.3325 22.4048 61.4689 21.8603C60.6108 21.3157 59.9397 20.5538 59.4556 19.5747C58.9771 18.5956 58.7378 17.4514 58.7378 16.1423C58.7378 14.8221 58.9771 13.6697 59.4556 12.685C59.9397 11.7004 60.6108 10.9358 61.4689 10.3912C62.3325 9.84666 63.3364 9.57438 64.4806 9.57438C65.6247 9.57438 66.6258 9.84666 67.484 10.3912C68.3476 10.9358 69.0187 11.7004 69.4972 12.685C69.9813 13.6697 70.2233 14.8221 70.2233 16.1423C70.2233 17.4514 69.9813 18.5956 69.4972 19.5747C69.0187 20.5538 68.3476 21.3157 67.484 21.8603C66.6258 22.4048 65.6247 22.6771 64.4806 22.6771ZM64.4806 20.9279C65.3497 20.9279 66.0648 20.7051 66.6258 20.2595C67.1869 19.814 67.6022 19.2282 67.8718 18.5021C68.1413 17.776 68.2761 16.9894 68.2761 16.1423C68.2761 15.2951 68.1413 14.5058 67.8718 13.7742C67.6022 13.0426 67.1869 12.4513 66.6258 12.0002C66.0648 11.5491 65.3497 11.3236 64.4806 11.3236C63.6114 11.3236 62.8963 11.5491 62.3353 12.0002C61.7742 12.4513 61.3589 13.0426 61.0893 13.7742C60.8198 14.5058 60.685 15.2951 60.685 16.1423C60.685 16.9894 60.8198 17.776 61.0893 18.5021C61.3589 19.2282 61.7742 19.814 62.3353 20.2595C62.8963 20.7051 63.6114 20.9279 64.4806 20.9279ZM77.9814 22.6771C76.9253 22.6771 75.9929 22.4103 75.1843 21.8768C74.3757 21.3377 73.7431 20.5786 73.2865 19.5995C72.83 18.6148 72.6017 17.4514 72.6017 16.1092C72.6017 14.7781 72.83 13.6229 73.2865 12.6438C73.7431 11.6647 74.3784 10.9083 75.1925 10.3747C76.0066 9.84116 76.9473 9.57438 78.0144 9.57438C78.8395 9.57438 79.4914 9.71189 79.9699 9.98693C80.454 10.2565 80.8225 10.5645 81.0756 10.9111C81.3341 11.2521 81.5349 11.5326 81.6779 11.7527H81.8429V5.51483H83.7902V22.4131H81.9089V20.4658H81.6779C81.5349 20.6969 81.3314 20.9884 81.0673 21.3404C80.8033 21.687 80.4265 21.9978 79.9369 22.2728C79.4474 22.5424 78.7955 22.6771 77.9814 22.6771ZM78.2454 20.9279C79.0266 20.9279 79.6866 20.7244 80.2257 20.3173C80.7648 19.9048 81.1746 19.3354 81.4551 18.6093C81.7357 17.8777 81.8759 17.0334 81.8759 16.0762C81.8759 15.1301 81.7384 14.3023 81.4634 13.5927C81.1883 12.8776 80.7813 12.322 80.2422 11.9259C79.7031 11.5244 79.0376 11.3236 78.2454 11.3236C77.4203 11.3236 76.7327 11.5354 76.1827 11.9589C75.6381 12.377 75.2283 12.9463 74.9533 13.6669C74.6837 14.382 74.549 15.1851 74.549 16.0762C74.549 16.9784 74.6865 17.798 74.9615 18.5351C75.242 19.2667 75.6546 19.8497 76.1992 20.2843C76.7492 20.7134 77.4313 20.9279 78.2454 20.9279ZM91.3564 22.7101C90.5533 22.7101 89.8245 22.5589 89.1699 22.2563C88.5153 21.9483 87.9955 21.5055 87.6104 20.9279C87.2254 20.3448 87.0329 19.6407 87.0329 18.8156C87.0329 18.0895 87.1759 17.5009 87.4619 17.0499C87.748 16.5933 88.1303 16.2358 88.6088 15.9772C89.0874 15.7187 89.6155 15.5262 90.193 15.3997C90.7761 15.2676 91.3619 15.1631 91.9505 15.0861C92.7206 14.9871 93.345 14.9128 93.8235 14.8633C94.3076 14.8083 94.6596 14.7176 94.8797 14.591C95.1052 14.4645 95.218 14.2445 95.218 13.931V13.8649C95.218 13.0508 94.9952 12.4183 94.5496 11.9672C94.1096 11.5161 93.4412 11.2906 92.5446 11.2906C91.615 11.2906 90.8861 11.4941 90.3581 11.9012C89.83 12.3082 89.4587 12.7428 89.2442 13.2049L87.3959 12.5448C87.726 11.7747 88.166 11.1751 88.7161 10.746C89.2717 10.3115 89.8767 10.0089 90.5313 9.83841C91.1914 9.66239 91.8405 9.57438 92.4786 9.57438C92.8856 9.57438 93.3532 9.62388 93.8813 9.72289C94.4149 9.81641 94.9292 10.0117 95.4242 10.3087C95.9248 10.6058 96.3401 11.0541 96.6702 11.6537C97.0002 12.2532 97.1652 13.0563 97.1652 14.063V22.4131H95.218V20.6969H95.1189C94.9869 20.9719 94.7669 21.2662 94.4589 21.5797C94.1508 21.8933 93.741 22.1601 93.2294 22.3801C92.7179 22.6001 92.0935 22.7101 91.3564 22.7101ZM91.6535 20.9609C92.4236 20.9609 93.0727 20.8096 93.6007 20.5071C94.1343 20.2045 94.5359 19.814 94.8054 19.3354C95.0804 18.8569 95.218 18.3535 95.218 17.8255V16.0432C95.1354 16.1423 94.9539 16.233 94.6734 16.3155C94.3984 16.3925 94.0793 16.4613 93.7163 16.5218C93.3587 16.5768 93.0094 16.6263 92.6684 16.6703C92.3328 16.7088 92.0605 16.7418 91.8515 16.7693C91.3454 16.8353 90.8724 16.9426 90.4323 17.0911C89.9978 17.2341 89.6457 17.4514 89.3762 17.743C89.1121 18.029 88.9801 18.4196 88.9801 18.9146C88.9801 19.5912 89.2304 20.1028 89.731 20.4493C90.237 20.7904 90.8779 20.9609 91.6535 20.9609ZM102.667 5.51483V22.4131H100.719V5.51483H102.667Z" fill="white"/>
</svg>
