<svg width="308" height="14" viewBox="0 0 308 14" fill="none" xmlns="http://www.w3.org/2000/svg">
<path d="M1.91406 12.5315C1.974 12.0519 4.33987 11.6103 4.73261 11.5048C8.66207 10.4492 12.6632 9.66961 16.6974 9.13427C24.5436 8.09307 32.5357 7.60999 40.4311 6.97835C48.8567 6.30431 57.2512 5.21424 65.6674 4.44913C71.3179 3.93545 76.94 3.23812 82.6067 2.91852C90.0693 2.49764 97.5531 2.53468 105.024 2.32121C140.889 1.29652 176.808 1.7799 212.689 1.7799C214.995 1.7799 217.294 1.8764 219.596 2.03189C222.471 2.22616 225.36 2.11402 228.238 2.32121C234.988 2.80719 241.921 2.78786 248.696 2.78786C250.629 2.78786 252.595 3.07593 254.52 3.25451C256.68 3.455 258.901 3.29184 261.071 3.29184C265.001 3.29184 268.934 3.75871 272.868 3.79582C280.675 3.86947 296.126 6.64237 296.126 6.64237C296.126 6.64237 306.5 8 306.989 7.99565" stroke="#FD7A08" stroke-width="2" stroke-linecap="round"/>
</svg>
